<svg width="127" height="127" viewBox="0 0 127 127" fill="none" xmlns="http://www.w3.org/2000/svg">
<g filter="url(#filter0_ii_8_43)">
<circle cx="63.5" cy="63.5" r="63.5" fill="#C90A47"/>
</g>
<path d="M92.4569 47.51C92.9067 47.829 93.4442 48.001 93.9956 48.0024C94.547 48.0039 95.0854 47.8346 95.5369 47.518C95.9419 47.23 96.2599 46.836 96.4539 46.379L97.6899 42.61C97.9921 41.7015 98.5019 40.876 99.1789 40.199C99.8559 39.5221 100.681 39.0122 101.59 38.71L105.221 37.527C105.742 37.3432 106.193 37.0024 106.512 36.5514C106.831 36.1004 107.003 35.5615 107.003 35.009C107.003 34.4565 106.831 33.9176 106.512 33.4666C106.193 33.0156 105.742 32.6748 105.221 32.491L101.521 31.298C100.615 30.9952 99.7922 30.4864 99.1164 29.8118C98.4405 29.1372 97.9303 28.3151 97.6259 27.41L96.4469 23.781C96.2634 23.2598 95.9223 22.8087 95.4709 22.49C95.0175 22.1767 94.4795 22.0088 93.9284 22.0088C93.3773 22.0088 92.8392 22.1767 92.3859 22.49C91.9264 22.8154 91.5811 23.2772 91.3989 23.81L90.2059 27.477C89.9029 28.359 89.4039 29.1607 88.7464 29.822C88.089 30.4833 87.2901 30.987 86.4099 31.295L82.7829 32.473C82.2591 32.6575 81.8058 33.0008 81.4863 33.455C81.1667 33.9093 80.9967 34.4518 81 35.0072C81.0033 35.5625 81.1797 36.1031 81.5047 36.5535C81.8296 37.0039 82.2869 37.3417 82.8129 37.52L86.3999 38.685C87.3088 38.9898 88.1345 39.5016 88.8116 40.1802C89.4888 40.8588 89.999 41.6854 90.3019 42.595L91.4819 46.218C91.6649 46.739 92.0049 47.191 92.4569 47.51ZM94.1619 45.388L94.0999 45.469C94.0698 45.4878 94.0349 45.4973 93.9995 45.4962C93.964 45.4952 93.9297 45.4836 93.9009 45.463C93.8804 45.4491 93.8628 45.4315 93.8489 45.411L92.6789 41.811C92.2577 40.5291 91.5411 39.3641 90.5869 38.41C89.6303 37.4552 88.4645 36.7362 87.1819 36.31L83.6129 35.156C83.5796 35.1431 83.5508 35.1209 83.5299 35.092C83.5093 35.0628 83.4987 35.0277 83.4999 34.992C83.4999 34.956 83.5119 34.922 83.5319 34.892C83.5463 34.8722 83.5638 34.855 83.5839 34.841L87.2039 33.666C88.4656 33.2289 89.6098 32.5073 90.5479 31.557C91.4597 30.6285 92.1523 29.5078 92.5749 28.277L93.7629 24.616C93.7746 24.5823 93.7967 24.5531 93.826 24.5327C93.8552 24.5122 93.8902 24.5015 93.9259 24.502C93.9565 24.5019 93.9867 24.5096 94.0135 24.5245C94.0403 24.5394 94.0628 24.5609 94.0789 24.587L95.2509 28.187C95.6774 29.462 96.3938 30.6207 97.3439 31.572C98.2993 32.5259 99.4632 33.2448 100.744 33.672L104.344 34.84L104.41 34.859C104.434 34.8711 104.454 34.8885 104.47 34.91C104.49 34.94 104.5 34.974 104.5 35.01C104.5 35.046 104.49 35.08 104.47 35.11C104.456 35.1286 104.439 35.1454 104.421 35.16L100.811 36.331C99.5316 36.7554 98.3692 37.4728 97.4162 38.426C96.4633 39.3791 95.7461 40.5417 95.3219 41.821L94.1619 45.388ZM107.876 56.642C108.205 56.875 108.597 57 109 57.001L109.005 57.004C109.413 57.0037 109.81 56.8754 110.141 56.6371C110.472 56.3988 110.719 56.0626 110.849 55.676L111.418 53.926C111.535 53.5768 111.731 53.2595 111.991 52.9989C112.251 52.7382 112.568 52.5415 112.917 52.424L114.707 51.842C114.99 51.7415 115.247 51.5768 115.456 51.3607C115.665 51.1447 115.821 50.8831 115.912 50.5966C116.003 50.31 116.026 50.0063 115.98 49.7092C115.934 49.4121 115.82 49.1296 115.647 48.884C115.4 48.5382 115.047 48.282 114.642 48.154L112.885 47.585C112.536 47.4684 112.218 47.2722 111.958 47.0119C111.698 46.7515 111.501 46.4342 111.385 46.085L110.803 44.296C110.669 43.9134 110.418 43.5823 110.086 43.3491C109.755 43.1159 109.358 42.9923 108.953 42.9957C108.547 42.999 108.153 43.129 107.825 43.3675C107.497 43.6061 107.252 43.9412 107.124 44.326L106.552 46.083C106.438 46.4269 106.248 46.7404 105.995 46.9995C105.742 47.2586 105.433 47.4565 105.092 47.578L103.302 48.16C102.92 48.2946 102.59 48.5451 102.357 48.8766C102.124 49.208 102.001 49.6039 102.004 50.0089C102.007 50.4138 102.137 50.8077 102.375 51.1354C102.613 51.4632 102.947 51.7085 103.331 51.837L105.083 52.407C105.433 52.5238 105.751 52.7209 106.011 52.9823C106.272 53.2438 106.467 53.5625 106.583 53.913L107.165 55.701C107.299 56.081 107.548 56.41 107.876 56.642ZM105.86 50.04L105.742 50.001L105.882 49.952C106.593 49.7065 107.238 49.2997 107.766 48.7635C108.294 48.2272 108.691 47.5761 108.925 46.861L108.965 46.74L109.005 46.868C109.244 47.5882 109.648 48.2425 110.185 48.7788C110.722 49.3152 111.376 49.7186 112.097 49.957L112.253 50.007L112.132 50.047C111.411 50.2859 110.755 50.6903 110.218 51.2277C109.681 51.7651 109.277 52.4206 109.039 53.142L108.999 53.263L108.959 53.14C108.72 52.417 108.316 51.76 107.777 51.2217C107.239 50.6834 106.582 50.2786 105.859 50.04H105.86Z" fill="white"/>
<path d="M92.4569 47.51C92.9067 47.829 93.4442 48.001 93.9956 48.0024C94.547 48.0039 95.0854 47.8346 95.5369 47.518C95.9419 47.23 96.2599 46.836 96.4539 46.379L97.6899 42.61C97.9921 41.7015 98.5019 40.876 99.1789 40.199C99.8559 39.5221 100.681 39.0122 101.59 38.71L105.221 37.527C105.742 37.3432 106.193 37.0024 106.512 36.5514C106.831 36.1004 107.003 35.5615 107.003 35.009C107.003 34.4565 106.831 33.9176 106.512 33.4666C106.193 33.0156 105.742 32.6748 105.221 32.491L101.521 31.298C100.615 30.9952 99.7922 30.4864 99.1164 29.8118C98.4405 29.1372 97.9303 28.3151 97.6259 27.41L96.4469 23.781C96.2634 23.2598 95.9223 22.8087 95.4709 22.49C95.0175 22.1767 94.4795 22.0088 93.9284 22.0088C93.3773 22.0088 92.8392 22.1767 92.3859 22.49C91.9264 22.8154 91.5811 23.2772 91.3989 23.81L90.2059 27.477C89.9029 28.359 89.4039 29.1607 88.7464 29.822C88.089 30.4833 87.2901 30.987 86.4099 31.295L82.7829 32.473C82.2591 32.6575 81.8058 33.0008 81.4863 33.455C81.1667 33.9093 80.9967 34.4518 81 35.0072C81.0033 35.5625 81.1797 36.1031 81.5047 36.5535C81.8296 37.0039 82.2869 37.3417 82.8129 37.52L86.3999 38.685C87.3088 38.9898 88.1345 39.5016 88.8116 40.1802C89.4888 40.8588 89.999 41.6854 90.3019 42.595L91.4819 46.218C91.6649 46.739 92.0049 47.191 92.4569 47.51ZM94.1619 45.388L94.0999 45.469C94.0698 45.4878 94.0349 45.4973 93.9995 45.4962C93.964 45.4952 93.9297 45.4836 93.9009 45.463C93.8804 45.4491 93.8628 45.4315 93.8489 45.411L92.6789 41.811C92.2577 40.5291 91.5411 39.3641 90.5869 38.41C89.6303 37.4552 88.4645 36.7362 87.1819 36.31L83.6129 35.156C83.5796 35.1431 83.5508 35.1209 83.5299 35.092C83.5093 35.0628 83.4987 35.0277 83.4999 34.992C83.4999 34.956 83.5119 34.922 83.5319 34.892C83.5463 34.8722 83.5638 34.855 83.5839 34.841L87.2039 33.666C88.4656 33.2289 89.6098 32.5073 90.5479 31.557C91.4597 30.6285 92.1523 29.5078 92.5749 28.277L93.7629 24.616C93.7746 24.5823 93.7967 24.5531 93.826 24.5327C93.8552 24.5122 93.8902 24.5015 93.9259 24.502C93.9565 24.5019 93.9867 24.5096 94.0135 24.5245C94.0403 24.5394 94.0628 24.5609 94.0789 24.587L95.2509 28.187C95.6774 29.462 96.3938 30.6207 97.3439 31.572C98.2993 32.5259 99.4632 33.2448 100.744 33.672L104.344 34.84L104.41 34.859C104.434 34.8711 104.454 34.8885 104.47 34.91C104.49 34.94 104.5 34.974 104.5 35.01C104.5 35.046 104.49 35.08 104.47 35.11C104.456 35.1286 104.439 35.1454 104.421 35.16L100.811 36.331C99.5316 36.7554 98.3692 37.4728 97.4162 38.426C96.4633 39.3791 95.7461 40.5417 95.3219 41.821L94.1619 45.388ZM107.876 56.642C108.205 56.875 108.597 57 109 57.001L109.005 57.004C109.413 57.0037 109.81 56.8754 110.141 56.6371C110.472 56.3988 110.719 56.0626 110.849 55.676L111.418 53.926C111.535 53.5768 111.731 53.2595 111.991 52.9989C112.251 52.7382 112.568 52.5415 112.917 52.424L114.707 51.842C114.99 51.7415 115.247 51.5768 115.456 51.3607C115.665 51.1447 115.821 50.8831 115.912 50.5966C116.003 50.31 116.026 50.0063 115.98 49.7092C115.934 49.4121 115.82 49.1296 115.647 48.884C115.4 48.5382 115.047 48.282 114.642 48.154L112.885 47.585C112.536 47.4684 112.218 47.2722 111.958 47.0119C111.698 46.7515 111.501 46.4342 111.385 46.085L110.803 44.296C110.669 43.9134 110.418 43.5823 110.086 43.3491C109.755 43.1159 109.358 42.9923 108.953 42.9957C108.547 42.999 108.153 43.129 107.825 43.3675C107.497 43.6061 107.252 43.9412 107.124 44.326L106.552 46.083C106.438 46.4269 106.248 46.7404 105.995 46.9995C105.742 47.2586 105.433 47.4565 105.092 47.578L103.302 48.16C102.92 48.2946 102.59 48.5451 102.357 48.8766C102.124 49.208 102.001 49.6039 102.004 50.0089C102.007 50.4138 102.137 50.8077 102.375 51.1354C102.613 51.4632 102.947 51.7085 103.331 51.837L105.083 52.407C105.433 52.5238 105.751 52.7209 106.011 52.9823C106.272 53.2438 106.467 53.5625 106.583 53.913L107.165 55.701C107.299 56.081 107.548 56.41 107.876 56.642ZM105.86 50.04L105.742 50.001L105.882 49.952C106.593 49.7065 107.238 49.2997 107.766 48.7635C108.294 48.2272 108.691 47.5761 108.925 46.861L108.965 46.74L109.005 46.868C109.244 47.5882 109.648 48.2425 110.185 48.7788C110.722 49.3152 111.376 49.7186 112.097 49.957L112.253 50.007L112.132 50.047C111.411 50.2859 110.755 50.6903 110.218 51.2277C109.681 51.7651 109.277 52.4206 109.039 53.142L108.999 53.263L108.959 53.14C108.72 52.417 108.316 51.76 107.777 51.2217C107.239 50.6834 106.582 50.2786 105.859 50.04H105.86Z" fill="white"/>
<path d="M81 19V25" stroke="white" stroke-width="3" stroke-linecap="round"/>
<path d="M78 22H84" stroke="white" stroke-width="3" stroke-linecap="round"/>
<path d="M96 96V102" stroke="white" stroke-width="3" stroke-linecap="round"/>
<path d="M93 99H99" stroke="white" stroke-width="3" stroke-linecap="round"/>
<defs>
<filter id="filter0_ii_8_43" x="-3" y="-3" width="134" height="133" filterUnits="userSpaceOnUse" color-interpolation-filters="sRGB">
<feFlood flood-opacity="0" result="BackgroundImageFix"/>
<feBlend mode="normal" in="SourceGraphic" in2="BackgroundImageFix" result="shape"/>
<feColorMatrix in="SourceAlpha" type="matrix" values="0 0 0 0 0 0 0 0 0 0 0 0 0 0 0 0 0 0 127 0" result="hardAlpha"/>
<feMorphology radius="1" operator="erode" in="SourceAlpha" result="effect1_innerShadow_8_43"/>
<feOffset dx="-3" dy="3"/>
<feGaussianBlur stdDeviation="3.5"/>
<feComposite in2="hardAlpha" operator="arithmetic" k2="-1" k3="1"/>
<feColorMatrix type="matrix" values="0 0 0 0 1 0 0 0 0 1 0 0 0 0 1 0 0 0 0.35 0"/>
<feBlend mode="normal" in2="shape" result="effect1_innerShadow_8_43"/>
<feColorMatrix in="SourceAlpha" type="matrix" values="0 0 0 0 0 0 0 0 0 0 0 0 0 0 0 0 0 0 127 0" result="hardAlpha"/>
<feOffset dx="6" dy="-3"/>
<feGaussianBlur stdDeviation="2"/>
<feComposite in2="hardAlpha" operator="arithmetic" k2="-1" k3="1"/>
<feColorMatrix type="matrix" values="0 0 0 0 0.558333 0 0 0 0 0.0325695 0 0 0 0 0.201822 0 0 0 1 0"/>
<feBlend mode="normal" in2="effect1_innerShadow_8_43" result="effect2_innerShadow_8_43"/>
</filter>
</defs>
</svg>
